<svg width="19" height="17" viewBox="0 0 19 17" fill="none" xmlns="http://www.w3.org/2000/svg">
<path d="M9.0473 0C4.0494 0 0 3.80444 0 8.5C0 13.1956 4.0494 17 9.0473 17C14.0452 17 18.0946 13.1956 18.0946 8.5C18.0946 3.80444 14.0452 0 9.0473 0ZM9.0473 3.29032C10.8203 3.29032 12.2576 4.64073 12.2576 6.30645C12.2576 7.97218 10.8203 9.32258 9.0473 9.32258C7.27432 9.32258 5.83697 7.97218 5.83697 6.30645C5.83697 4.64073 7.27432 3.29032 9.0473 3.29032ZM9.0473 15.0806C6.90586 15.0806 4.98696 14.169 3.70283 12.7431C4.38867 11.5298 5.73117 10.6935 7.29621 10.6935C7.38376 10.6935 7.47132 10.7073 7.55522 10.7313C8.02948 10.8752 8.52562 10.9677 9.0473 10.9677C9.56898 10.9677 10.0688 10.8752 10.5394 10.7313C10.6233 10.7073 10.7108 10.6935 10.7984 10.6935C12.3634 10.6935 13.7059 11.5298 14.3918 12.7431C13.1076 14.169 11.1887 15.0806 9.0473 15.0806Z" fill="#2AF0C1"/>
</svg>
