<svg width="19" height="17" viewBox="0 0 19 17" fill="none" xmlns="http://www.w3.org/2000/svg">
<path d="M16.1905 0H1.94286C0.870238 0 0 0.815848 0 1.82143V15.1786C0 16.1842 0.870238 17 1.94286 17H16.1905C17.2631 17 18.1333 16.1842 18.1333 15.1786V1.82143C18.1333 0.815848 17.2631 0 16.1905 0ZM14.8952 9.5625C14.8952 9.81295 14.6767 10.0179 14.4095 10.0179H10.6857V13.5089C10.6857 13.7594 10.4671 13.9643 10.2 13.9643H7.93333C7.66619 13.9643 7.44762 13.7594 7.44762 13.5089V10.0179H3.72381C3.45667 10.0179 3.2381 9.81295 3.2381 9.5625V7.4375C3.2381 7.18705 3.45667 6.98214 3.72381 6.98214H7.44762V3.49107C7.44762 3.24063 7.66619 3.03571 7.93333 3.03571H10.2C10.4671 3.03571 10.6857 3.24063 10.6857 3.49107V6.98214H14.4095C14.6767 6.98214 14.8952 7.18705 14.8952 7.4375V9.5625Z" fill="#2AF0C1"/>
</svg>
